<svg width="108" height="102" viewBox="0 0 108 102" fill="none" xmlns="http://www.w3.org/2000/svg">
<path opacity="0.02" d="M54.0399 47.7908C56.5007 49.6379 23.6765 104.17 27.2217 101.651L54.0399 82.2143L80.8164 101.651C84.3199 104.17 51.5374 49.6379 54.0399 47.7908C56.4589 45.9437 92.7866 98.0828 91.4102 94.0947L80.8164 63.0295L107.843 43.8867C111.347 41.4518 54.9992 50.6455 54.0399 47.7908C53.0806 44.9362 108.135 31.5866 103.797 31.6285L70.6397 31.8804L60.5046 0.605381C59.17 -3.46667 57.0846 47.7908 54.0399 47.7908C50.9535 47.7908 48.8264 -3.46667 47.4917 0.605381L37.3984 31.8804L4.19886 31.6285C-0.138765 31.5866 54.9992 44.9782 54.0399 47.7908C53.0389 50.6874 -3.30857 41.4518 0.15319 43.8867L27.18 63.0295L16.5861 94.0947C15.2098 98.0828 51.5791 45.9437 54.0399 47.7908Z" fill="white"/>
</svg>
