<svg width="339" height="339" viewBox="0 0 339 339" fill="none" xmlns="http://www.w3.org/2000/svg">
<g opacity="0.02">
<path d="M180.098 307.218C178.683 307.218 177.283 306.935 175.979 306.385C174.675 305.836 173.495 305.03 172.507 304.017C171.52 303.004 170.745 301.803 170.23 300.485C169.714 299.168 169.467 297.76 169.505 296.346V174.882C169.505 173.477 168.947 172.13 167.953 171.136C166.96 170.143 165.613 169.585 164.208 169.585H42.6511C40.4229 169.611 38.2412 168.948 36.405 167.685C34.5688 166.423 33.1681 164.623 32.395 162.533C31.5146 160.041 31.5976 157.31 32.6279 154.876C33.6582 152.441 35.5612 150.48 37.9633 149.377L292.213 32.7468C294.178 31.8467 296.37 31.5689 298.497 31.9504C300.624 32.332 302.583 33.3547 304.112 34.8815C305.641 36.4082 306.666 38.366 307.051 40.4922C307.435 42.6184 307.16 44.8113 306.263 46.7769L189.732 301.027C188.888 302.873 187.532 304.439 185.824 305.536C184.116 306.634 182.128 307.217 180.098 307.218Z" fill="white"/>
</g>
</svg>
